<svg width="228" height="48" viewBox="0 0 228 48" fill="none" xmlns="http://www.w3.org/2000/svg">
    <path fill-rule="evenodd" clip-rule="evenodd" d="M213.385 13.772H218.103L218.075 21.212H219.1L221.793 13.772H226.898L223.234 23.602L227.426 34.482H221.903L219.186 26.153H218.076L218.103 34.482H213.385V13.772ZM197.49 13.772H202.179V21.242H205.536V13.772H210.223V34.482H205.536V26.182H202.179V34.482H197.49V13.772ZM181.147 34.509H186.031L186.615 30.929H189.969L190.553 34.509H195.435L191.33 13.803H185.28L181.147 34.509ZM188.304 20.073L189.192 26.375H187.388L188.304 20.073ZM168.049 34.482H173.764C175.012 34.482 180.202 33.952 180.229 27.677C180.229 22.41 176.208 21.491 173.599 21.491H172.739V18.743H179.093V13.773H168.049V34.482ZM172.739 30.317V25.627H173.432C174.014 25.627 175.515 25.654 175.515 27.791C175.515 29.959 174.015 30.317 173.432 30.317H172.739ZM149.433 13.772H153.513L157.116 18.658L160.754 13.772H164.804V34.482H160V21.85L157.116 25.459L154.232 21.85V34.482H149.433V13.772ZM139.526 34.733C145.214 34.733 147.126 29.4 147.126 24.1C147.126 18.8 145.214 13.468 139.526 13.468C133.839 13.468 131.926 18.8 131.926 24.1C131.926 29.4 133.839 34.733 139.526 34.733ZM139.526 29.707C137.83 29.707 136.974 27.738 136.974 24.1C136.974 20.462 137.83 18.493 139.526 18.493C141.221 18.493 142.077 20.463 142.077 24.1C142.077 27.738 141.221 29.707 139.526 29.707ZM118.022 34.482H122.822V27.654H124.432C129.176 27.654 130.648 23.378 130.648 20.654C130.648 17.99 128.953 13.772 124.433 13.772H118.022V34.482ZM122.822 18.325H123.96C125.043 18.325 125.737 18.991 125.737 20.712C125.737 22.933 124.57 23.097 123.96 23.097H122.822V18.325ZM102.179 13.772H115.275V34.482H110.474V18.769H106.979V34.482H102.179V13.772ZM92.329 21.797C93.104 21.797 94.521 21.297 94.521 19.77C94.521 17.967 92.885 17.853 92.411 17.853C91.857 17.853 90.804 17.939 89.776 18.438L89.721 13.938C91.357 13.523 92.523 13.411 93.909 13.411C97.852 13.411 99.599 16.161 99.599 18.851C99.599 21.463 98.099 23.041 96.63 23.654V23.848C98.045 24.296 99.932 25.652 99.932 28.818C99.932 32.734 97.214 34.898 93.716 34.898C91.857 34.872 90.636 34.622 89.165 33.818L89.249 29.512C90.609 30.097 91.524 30.152 92.44 30.152C93.994 30.152 94.603 29.011 94.603 28.182C94.603 27.014 93.855 26.237 92.218 26.237H90.276V21.797H92.329ZM73.463 34.482H78.318L78.928 30.899H82.286L82.868 34.482H87.722L83.615 13.772H77.568L73.463 34.482ZM80.593 20.019L81.508 26.349H79.676L80.592 20.019H80.593ZM64.169 13.772H74.014V18.935H69.05V34.482H64.169V13.772Z" fill="white"/>
    <path d="M1.2 24.013C1.2 36.575 11.435 46.8 24.016 46.8C36.572 46.8 46.8 36.571 46.8 24.013C46.8 11.432 36.576 1.2 24.016 1.2C11.43 1.2 1.2 11.428 1.2 24.013ZM0 24.013C0 10.765 10.768 0 24.016 0C37.234 0 48 10.765 48 24.013C48 37.234 37.234 48 24.016 48C10.768 48 0 37.234 0 24.013Z" fill="white"/>
    <path fill-rule="evenodd" clip-rule="evenodd" d="M16.337 8.30999C15.39 8.71999 14.669 9.16699 13.95 9.66499C19.747 7.08499 26.825 7.25199 30.623 8.94599C31.817 9.50099 32.619 9.83599 32.983 10.499C29.041 9.44299 27.349 9.25199 24.049 9.33299C19.356 9.41799 13.114 11.275 10.729 12.694L9.67799 14C13.113 11.968 19.524 10.64 23.078 10.527C27.045 10.474 30.123 10.835 32.955 11.861C32.786 12.581 32.426 12.943 31.816 13.306C20.496 11.334 13.808 13.663 7.75899 17.605L7.31699 18.908C14.06 14.276 22.326 13.001 30.291 14.388C27.434 15.387 24.021 15.608 21.163 16.27C18.723 16.827 17.418 16.995 14.168 18.08C10.871 19.162 8.92399 20.272 7.70499 21.688C7.12199 22.357 6.67799 23.132 6.56499 23.962C6.51399 24.46 6.54099 24.908 6.70799 25.352C6.84199 25.741 7.14799 26.129 7.48399 26.518C7.09699 27.183 6.75799 28.046 7.31699 29.046C7.56599 29.515 8.20399 29.986 8.81699 30.435L8.64599 30.93C8.56299 31.517 8.48199 32.209 8.86999 32.79C9.53399 33.845 10.339 34.54 11.615 35.207C11.811 36.068 12.114 36.76 12.78 37.374C14.195 38.676 17.36 41.175 22.99 41.564C27.21 41.844 30.234 40.565 31.373 40.009L32.759 39.289C30.401 40.231 26.435 40.787 23.185 40.509C18.468 40.12 14.255 37.039 13.727 36.15C13.891 36.26 14.114 36.344 14.305 36.428C19.829 39.093 26.959 40.538 36.089 36.818L36.841 36.095C28.541 38.676 21.275 38.595 13.475 34.514C13.56 34.126 13.727 33.787 14.085 33.516C16.081 34.399 17.998 35.126 20.329 35.594C23.049 36.095 26.155 36.208 28.709 36.095C31.291 35.985 36.394 34.707 38.809 33.431C39.029 33.238 39.139 32.907 39.361 32.683C34.648 34.399 29.041 35.207 25.657 34.955C22.355 34.707 19.417 34.317 15.53 32.542C16.2832 32.242 17.0516 31.9817 17.832 31.762C20.384 32.542 22.991 33.011 26.072 33.152C29.126 33.29 36.255 32.155 40.749 29.435C40.89 29.045 41.027 28.627 41.027 28.627C41.027 28.627 34.784 31.961 27.712 31.961C24.408 31.961 22.383 31.487 20.887 31.127C24.213 30.516 28.405 30.015 33.118 28.823C35.504 28.21 38.446 26.821 39.779 25.658C40.916 24.628 41.805 23.295 41.501 21.94C41.441 21.575 40.944 20.719 40.333 20.411C40.916 19.661 40.861 19.022 40.78 18.471C40.722 18.048 40.528 17.581 40.281 17.165C39.891 16.661 39.528 16.27 38.778 15.829C38.891 15.189 38.809 14.636 38.557 14.108C37.975 13.108 36.923 12.25 35.118 11.334C35.035 10.971 34.811 10.499 34.425 10.029C32.152 7.77999 28.432 6.69699 25.295 6.64099C25.119 6.63699 24.945 6.63599 24.773 6.63599C21.104 6.63599 18.16 7.45999 16.336 8.31099L16.337 8.30999ZM34.093 13.862C34.373 13.556 34.785 13.084 34.895 12.694C35.675 13.194 36.562 13.944 36.671 14.722C35.841 14.412 34.953 14.085 34.093 13.862ZM34.785 17.246C33.456 16.884 32.291 16.439 30.733 16.165C31.68 15.801 32.314 15.415 32.873 14.969C34.117 15.299 35.283 15.719 36.232 16.134C36.069 16.376 35.118 17.255 34.829 17.255C34.8138 17.2558 34.7986 17.2527 34.785 17.246ZM37.201 18.218C37.559 17.939 37.894 17.638 38.201 17.273C38.947 17.911 39.169 18.356 38.811 19.051C38.313 18.691 37.781 18.494 37.201 18.218ZM8.70699 25.103C6.64999 22.271 13.781 20.246 15.143 19.828C18.61 18.798 22.663 18.025 26.326 17.581C28.846 17.273 30.182 17.554 32.569 18.191C26.436 19.828 20.385 20.352 14.613 22.048C9.95999 23.4 8.72599 25.103 8.70699 25.103ZM10.23 26.461C12.394 24.627 16.807 23.602 18.418 23.241C23.549 22.131 28.323 21.438 30.292 20.939C32.68 20.352 34.344 19.8 35.505 19.247C35.562 19.162 37.448 20.077 37.643 20.297C37.006 20.827 36.12 21.273 35.146 21.602C32.234 22.658 26.935 23.766 24.133 24.19C21.303 24.66 18.94 25.018 15.809 25.847C14.003 26.323 12.781 26.877 11.893 27.462C11.228 27.072 10.84 26.964 10.23 26.462V26.461ZM14.256 28.682C15.168 28.294 16.168 27.987 17.136 27.742C22.022 26.542 26.326 26.322 32.263 24.715C35.119 23.962 37.201 23.155 38.506 22.161C38.699 21.991 38.892 21.853 39.088 21.688C40.808 24.352 34.344 26.406 29.93 27.354C27.6216 27.8106 25.3089 28.2447 22.992 28.656C20.111 29.128 19.162 29.379 17.166 29.961C16.168 29.571 15.168 29.155 14.256 28.682ZM9.06299 27.849C9.50799 28.129 9.83999 28.353 10.369 28.627C10.174 28.793 9.92299 28.961 9.73099 29.155C9.28899 28.902 8.84099 28.353 9.06299 27.849ZM11.369 30.403C11.691 30.1284 12.0337 29.879 12.394 29.657C13.227 30.047 14.086 30.403 14.89 30.766C14.306 30.986 13.78 31.237 13.34 31.516C12.6775 31.1548 12.0204 30.7837 11.369 30.403ZM10.646 31.763C11.118 32.069 11.589 32.318 12.063 32.57C11.869 32.848 11.728 33.067 11.647 33.348C10.952 32.763 10.617 32.292 10.647 31.763H10.646Z" fill="white"/>
</svg>
